# xmcd
#
# Track frame offsets:
#	150
#	16697
#	38915
#	55415
#	72635
#	91890
#	112347
#	133280
#	151595
#	169862
#	186830
#	201685
#
# Disc length: 2921 seconds
#
# Revision: 0
# Processed by: cddbd v1.5.2PL0 Copyright (c) Steve Scherf et al.
# Submitted via: EZCDAudioConverter 7.1.5.1
#
DISCID=b00b670c
DTITLE=王心凌 - 王心凌 美丽的日子 新歌×精选 梦幻节奏 CD2 爱你盘
DYEAR=2009
DGENRE=
TTITLE0=失恋歌迷党
TTITLE1=爱的滑翔翼
TTITLE2=往幸福出发吧
TTITLE3=DA DA DA
TTITLE4=2005月光闪耀
TTITLE5=爱你(电音版)
TTITLE6=灰姑娘的眼泪(电音版 )
TTITLE7=睫毛弯弯
TTITLE8=丢铜板
TTITLE9=想和你
TTITLE10=Woosa Woosa
TTITLE11=梦的光点
EXTD=
EXTT0=
EXTT1=
EXTT2=
EXTT3=
EXTT4=
EXTT5=
EXTT6=
EXTT7=
EXTT8=
EXTT9=
EXTT10=
EXTT11=
PLAYORDER=
